#N canvas 608 233 769 665 12;
#X obj 41 144 mod 12;
#X floatatom 41 112 5 0 0 0 - - - 0;
#X floatatom 131 505 5 -50 50 0 - - - 0;
#X obj 194 435 sel 0 1 2 3 4 5 6 7 8 9 10 11;
#X floatatom 41 176 5 0 0 0 - - - 0;
#X obj 102 102 cnv 15 448 148 empty empty Afinador 180 12 0 14 #e0e0e0
#404040 0;
#X floatatom 125 205 5 -50 50 3 Do - - 0;
#X floatatom 158 164 5 -50 50 2 Do$-Reb - - 0;
#X floatatom 186 205 5 -50 50 3 Re - - 0;
#X floatatom 223 164 5 -50 50 2 Re$-Mib - - 0;
#X floatatom 251 203 5 -50 50 3 Mi - - 0;
#X floatatom 302 202 5 -50 50 3 Fa - - 0;
#X floatatom 334 163 5 -50 50 2 Fa$-Solb - - 0;
#X floatatom 363 202 5 -50 50 3 Sol - - 0;
#X floatatom 396 163 5 -50 50 2 Sol$-Lab - - 0;
#X floatatom 426 202 5 -50 50 3 La - - 0;
#X floatatom 459 163 5 -50 50 2 La$-Sib - - 0;
#X floatatom 489 201 5 -50 50 3 Si - - 0;
#X obj 41 28 inlet;
#X obj 121 28 inlet;
#X obj 205 28 inlet;
#X text 39 8 nota MIDI;
#X text 120 7 velocity;
#X text 205 8 channel;
#X obj 290 595 outlet;
#X text 294 575 cents;
#X obj 41 594 outlet;
#X obj 122 595 outlet;
#X obj 199 595 outlet;
#X text 48 574 nota MIDI;
#X text 130 575 velocity;
#X text 206 576 channel;
#X obj 370 593 outlet;
#X text 370 573 diapason;
#X floatatom 496 114 5 400 460 0 Diapasón: diapason_init - 0;
#X obj 589 31 loadbang;
#X msg 589 78 \; diapason_init 415;
#X connect 0 0 4 0;
#X connect 1 0 0 0;
#X connect 2 0 24 0;
#X connect 3 0 6 0;
#X connect 3 1 7 0;
#X connect 3 2 8 0;
#X connect 3 3 9 0;
#X connect 3 4 10 0;
#X connect 3 5 11 0;
#X connect 3 6 12 0;
#X connect 3 7 13 0;
#X connect 3 8 14 0;
#X connect 3 9 15 0;
#X connect 3 10 16 0;
#X connect 3 11 17 0;
#X connect 4 0 3 0;
#X connect 6 0 2 0;
#X connect 7 0 2 0;
#X connect 8 0 2 0;
#X connect 9 0 2 0;
#X connect 10 0 2 0;
#X connect 11 0 2 0;
#X connect 12 0 2 0;
#X connect 13 0 2 0;
#X connect 14 0 2 0;
#X connect 15 0 2 0;
#X connect 16 0 2 0;
#X connect 17 0 2 0;
#X connect 18 0 1 0;
#X connect 18 0 26 0;
#X connect 19 0 27 0;
#X connect 20 0 28 0;
#X connect 34 0 32 0;
#X connect 35 0 36 0;
#X coords 0 -1 1 1 452 152 2 100 100;
