#N canvas 358 138 816 521 12;
#X obj 41 144 mod 12;
#X floatatom 41 112 5 0 0 0 - - - 0;
#X floatatom 41 176 5 0 0 0 - - - 0;
#X obj 102 102 cnv 15 648 148 empty empty Afinador 300 12 0 14 #e0e0e0
#404040 0;
#X obj 41 28 inlet;
#X obj 135 28 inlet;
#X obj 210 28 inlet;
#X text 39 8 nota MIDI;
#X text 134 7 velocity;
#X text 210 8 channel;
#X obj 454 448 outlet;
#X text 458 428 cents;
#X obj 41 449 outlet;
#X obj 135 450 outlet;
#X obj 212 450 outlet;
#X text 48 429 nota MIDI;
#X text 143 430 velocity;
#X text 219 431 channel;
#X obj 686 447 outlet;
#X text 686 427 diapason;
#X floatatom 686 117 5 400 460 0 Diapasón: diapason_init - 0;
#X obj 589 31 loadbang;
#X floatatom 315 210 5 -50 50 3 Do do_init - 0;
#X floatatom 348 169 5 -50 50 2 Do$-Reb dos_init - 0;
#X floatatom 376 210 5 -50 50 3 Re re_init - 0;
#X floatatom 413 169 5 -50 50 2 Re$-Mib res_init - 0;
#X floatatom 441 208 5 -50 50 3 Mi mi_init - 0;
#X floatatom 492 207 5 -50 50 3 Fa fa_init - 0;
#X floatatom 524 168 5 -50 50 2 Fa$-Solb fas_init - 0;
#X floatatom 553 207 5 -50 50 3 Sol sol_init - 0;
#X floatatom 586 167 5 -50 50 2 Sol$-Lab sols_init - 0;
#X floatatom 616 207 5 -50 50 3 La la_init - 0;
#X floatatom 649 168 5 -50 50 2 La$-Sib las_init - 0;
#X floatatom 679 206 5 -50 50 3 Si si_init - 0;
#X floatatom 454 372 5 -50 50 0 - - - 0;
#X obj 372 268 sel 0 1 2 3 4 5 6 7 8 9 10 11;
#X obj 109 137 vradio 15 1 0 3 empty empty Temperamentos 0 -8 0 10
#fcfcfc #000000 #000000 0;
#X obj 109 292 sel 0 1 2;
#N canvas 459 236 753 198 notas 0;
#X floatatom 37 70 5 -50 50 3 Do - - 0;
#X floatatom 97 70 5 -50 50 2 Do$-Reb - - 0;
#X floatatom 158 70 5 -50 50 3 Re - - 0;
#X floatatom 219 70 5 -50 50 2 Re$-Mib - - 0;
#X floatatom 278 68 5 -50 50 3 Mi - - 0;
#X floatatom 338 68 5 -50 50 3 Fa - - 0;
#X floatatom 395 69 5 -50 50 2 Fa$-Solb - - 0;
#X floatatom 452 67 5 -50 50 3 Sol - - 0;
#X floatatom 514 67 5 -50 50 2 Sol$-Lab - - 0;
#X floatatom 571 65 5 -50 50 3 La - - 0;
#X floatatom 631 64 5 -50 50 2 La$-Sib - - 0;
#X floatatom 689 63 5 -50 50 3 Si - - 0;
#X obj 37 29 inlet;
#X obj 97 29 inlet;
#X obj 158 29 inlet;
#X obj 219 28 inlet;
#X obj 278 26 inlet;
#X obj 338 25 inlet;
#X obj 395 25 inlet;
#X obj 452 24 inlet;
#X obj 515 22 inlet;
#X obj 572 20 inlet;
#X obj 631 18 inlet;
#X obj 689 16 inlet;
#X obj 37 118 outlet;
#X obj 97 118 outlet;
#X obj 158 117 outlet;
#X obj 219 117 outlet;
#X obj 278 117 outlet;
#X obj 338 117 outlet;
#X obj 395 117 outlet;
#X obj 452 117 outlet;
#X obj 513 118 outlet;
#X obj 571 118 outlet;
#X obj 631 118 outlet;
#X obj 689 118 outlet;
#X connect 0 0 24 0;
#X connect 1 0 25 0;
#X connect 2 0 26 0;
#X connect 3 0 27 0;
#X connect 4 0 28 0;
#X connect 5 0 29 0;
#X connect 6 0 30 0;
#X connect 7 0 31 0;
#X connect 8 0 32 0;
#X connect 9 0 33 0;
#X connect 10 0 34 0;
#X connect 11 0 35 0;
#X connect 12 0 0 0;
#X connect 13 0 1 0;
#X connect 14 0 2 0;
#X connect 15 0 3 0;
#X connect 16 0 4 0;
#X connect 17 0 5 0;
#X connect 18 0 6 0;
#X connect 19 0 7 0;
#X connect 20 0 8 0;
#X connect 21 0 9 0;
#X connect 22 0 10 0;
#X connect 23 0 11 0;
#X restore 373 319 pd notas;
#X f 26;
#N canvas 914 246 854 518 temperamentos 0;
#X obj 48 25 inlet;
#X msg 48 79 \; diapason_init 440 \; do_init 0 \; dos_init 0 \; re_init
0 \; res_init 0 \; mi_init 0 \; fa_init 0 \; fas_init 0 \; sol_init
0 \; sols_init 0 \; la_init 0 \; las_init 0 \; si_init 0 \;;
#X obj 233 21 inlet;
#X text 246 54 valotti;
#X msg 233 75 \; diapason_init 415 \; do_init 0 \; dos_init -5 \; re_init
-4 \; res_init -2 \; mi_init -8 \; fa_init 2 \; fas_init -8 \; sol_init
-2 \; sols_init -4 \; la_init -6 \; las_init 0 \; si_init -10 \;;
#X obj 404 14 inlet;
#X text 55 58 temperamento igual;
#X text 415 58 wercmeister iii;
#X msg 405 79 \; diapason_init 415 \; do_init 0 \; dos_init -10 \;
re_init -8 \; res_init -6 \; mi_init -10 \; fa_init -2 \; fas_init
-12 \; sol_init -4 \; sols_init -8 \; la_init -12 \; las_init -4 \;
si_init -8 \;;
#X connect 0 0 1 0;
#X connect 2 0 4 0;
#X connect 5 0 8 0;
#X restore 105 349 pd temperamentos;
#X text 131 137 Temperamento igual;
#X text 133 152 Vallotti;
#X text 133 168 Wercmeister III;
#X connect 0 0 2 0;
#X connect 1 0 0 0;
#X connect 2 0 35 0;
#X connect 4 0 1 0;
#X connect 4 0 12 0;
#X connect 5 0 13 0;
#X connect 6 0 14 0;
#X connect 20 0 18 0;
#X connect 21 0 39 0;
#X connect 22 0 38 0;
#X connect 23 0 38 1;
#X connect 24 0 38 2;
#X connect 25 0 38 3;
#X connect 26 0 38 4;
#X connect 27 0 38 5;
#X connect 28 0 38 6;
#X connect 29 0 38 7;
#X connect 30 0 38 8;
#X connect 31 0 38 9;
#X connect 32 0 38 10;
#X connect 33 0 38 11;
#X connect 34 0 10 0;
#X connect 35 0 38 0;
#X connect 35 1 38 1;
#X connect 35 2 38 2;
#X connect 35 3 38 3;
#X connect 35 4 38 4;
#X connect 35 5 38 5;
#X connect 35 6 38 6;
#X connect 35 7 38 7;
#X connect 35 8 38 8;
#X connect 35 9 38 9;
#X connect 35 10 38 10;
#X connect 35 11 38 11;
#X connect 36 0 37 0;
#X connect 37 0 39 0;
#X connect 37 1 39 1;
#X connect 37 2 39 2;
#X connect 38 0 34 0;
#X connect 38 1 34 0;
#X connect 38 2 34 0;
#X connect 38 3 34 0;
#X connect 38 4 34 0;
#X connect 38 5 34 0;
#X connect 38 6 34 0;
#X connect 38 7 34 0;
#X connect 38 8 34 0;
#X connect 38 9 34 0;
#X connect 38 10 34 0;
#X connect 38 11 34 0;
#X coords 0 -1 1 1 652 152 2 100 100;
