#N canvas 608 443 816 521 12;
#X obj 102 102 cnv 15 648 148 empty empty Afinador 300 12 0 14 #e0e0e0
#404040 0;
#X obj 41 28 inlet;
#X obj 135 28 inlet;
#X obj 210 28 inlet;
#X text 39 8 nota MIDI;
#X text 134 7 velocity;
#X text 210 8 channel;
#X obj 454 448 outlet;
#X text 458 428 cents;
#X obj 41 449 outlet;
#X obj 135 450 outlet;
#X obj 212 450 outlet;
#X text 48 429 nota MIDI;
#X text 143 430 velocity;
#X text 219 431 channel;
#X obj 686 447 outlet;
#X text 686 427 diapason;
#X floatatom 686 117 5 400 460 0 Diapasón: diapason_r - 0;
#X obj 589 31 loadbang;
#X floatatom 315 210 5 -50 50 3 Do do_r do_s 0;
#X floatatom 348 169 5 -50 50 2 Do$-Reb dos_r dos_s 0;
#X floatatom 377 210 5 -50 50 3 Re re_r re_s 0;
#X floatatom 413 169 5 -50 50 2 Re$-Mib res_r res_s 0;
#X floatatom 441 208 5 -50 50 3 Mi mi_r mi_s 0;
#X floatatom 492 207 5 -50 50 3 Fa fa_r fa_s 0;
#X floatatom 524 168 5 -50 50 2 Fa$-Solb fas_r fas_s 0;
#X floatatom 553 207 5 -50 50 3 Sol sol_r sol_s 0;
#X floatatom 586 167 5 -50 50 2 Sol$-Lab sols_r sols_s 0;
#X floatatom 616 207 5 -50 50 3 La la_r la_s 0;
#X floatatom 649 168 5 -50 50 2 La$-Sib las_r las_s 0;
#X floatatom 679 206 5 -50 50 3 Si si_r si_s 0;
#X floatatom 455 406 5 -50 50 0 - - - 0;
#X obj 372 268 sel 0 1 2 3 4 5 6 7 8 9 10 11;
#X obj 109 137 vradio 15 1 0 3 empty temper_r Temperamentos 0 -8 0
10 #fcfcfc #000000 #000000 0;
#X obj 513 32 sel 0 1 2;
#N canvas 459 236 753 198 notas 0;
#X floatatom 37 70 5 -50 50 3 Do - - 0;
#X floatatom 97 70 5 -50 50 2 Do$-Reb - - 0;
#X floatatom 158 70 5 -50 50 3 Re - - 0;
#X floatatom 219 70 5 -50 50 2 Re$-Mib - - 0;
#X floatatom 278 68 5 -50 50 3 Mi - - 0;
#X floatatom 338 68 5 -50 50 3 Fa - - 0;
#X floatatom 395 69 5 -50 50 2 Fa$-Solb - - 0;
#X floatatom 452 67 5 -50 50 3 Sol - - 0;
#X floatatom 514 67 5 -50 50 2 Sol$-Lab - - 0;
#X floatatom 571 65 5 -50 50 3 La - - 0;
#X floatatom 631 64 5 -50 50 2 La$-Sib - - 0;
#X floatatom 689 63 5 -50 50 3 Si - - 0;
#X obj 37 29 inlet;
#X obj 97 29 inlet;
#X obj 158 29 inlet;
#X obj 219 28 inlet;
#X obj 278 26 inlet;
#X obj 338 25 inlet;
#X obj 395 25 inlet;
#X obj 452 24 inlet;
#X obj 515 22 inlet;
#X obj 572 20 inlet;
#X obj 631 18 inlet;
#X obj 689 16 inlet;
#X obj 37 153 outlet;
#X obj 97 153 outlet;
#X obj 158 152 outlet;
#X obj 219 152 outlet;
#X obj 278 152 outlet;
#X obj 338 152 outlet;
#X obj 395 152 outlet;
#X obj 452 152 outlet;
#X obj 513 153 outlet;
#X obj 571 153 outlet;
#X obj 631 153 outlet;
#X obj 689 153 outlet;
#X connect 0 0 24 0;
#X connect 1 0 25 0;
#X connect 2 0 26 0;
#X connect 3 0 27 0;
#X connect 4 0 28 0;
#X connect 5 0 29 0;
#X connect 6 0 30 0;
#X connect 7 0 31 0;
#X connect 8 0 32 0;
#X connect 9 0 33 0;
#X connect 10 0 34 0;
#X connect 11 0 35 0;
#X connect 12 0 0 0;
#X connect 13 0 1 0;
#X connect 14 0 2 0;
#X connect 15 0 3 0;
#X connect 16 0 4 0;
#X connect 17 0 5 0;
#X connect 18 0 6 0;
#X connect 19 0 7 0;
#X connect 20 0 8 0;
#X connect 21 0 9 0;
#X connect 22 0 10 0;
#X connect 23 0 11 0;
#X restore 372 316 pd notas;
#X f 27;
#N canvas 914 245 854 518 temperamentos 0;
#X obj 48 25 inlet;
#X obj 233 21 inlet;
#X text 246 54 valotti;
#X obj 404 14 inlet;
#X text 55 58 temperamento igual;
#X text 415 58 wercmeister iii;
#X msg 48 79 \; do_r 0 \; dos_r 0 \; re_r 0 \; res_r 0 \; mi_r 0 \;
fa_r 0 \; fas_r 0 \; sol_r 0 \; sols_r 0 \; la_r 0 \; las_r 0 \; si_r
0 \;;
#X msg 233 75 \; do_r 0 \; dos_r -5 \; re_r -4 \; res_r -2 \; mi_r
-8 \; fa_r 2 \; fas_r -8 \; sol_r -2 \; sols_r -4 \; la_r -6 \; las_r
0 \; si_r -10 \;;
#X msg 405 79 \; do_r 0 \; dos_r -10 \; re_r -8 \; res_r -6 \; mi_r
-10 \; fa_r -2 \; fas_r -12 \; sol_r -4 \; sols_r -8 \; la_r -12 \;
las_r -4 \; si_r -8 \;;
#X connect 0 0 6 0;
#X connect 1 0 7 0;
#X connect 3 0 8 0;
#X restore 512 69 pd temperamentos;
#X text 131 137 Temperamento igual;
#X text 133 152 Vallotti;
#X text 133 168 Wercmeister III;
#N canvas 420 247 110 151 whichnote 0;
#X obj 16 12 inlet;
#X obj 16 47 mod 12;
#X obj 16 82 outlet;
#X connect 0 0 1 0;
#X connect 1 0 2 0;
#X restore 60 66 pd whichnote;
#X obj 300 317 r do_s;
#X obj 300 343 r dos_s;
#X obj 300 369 r re_s;
#X obj 300 395 r res_s;
#X obj 300 421 r mi_s;
#X obj 300 447 r fa_s;
#X obj 586 449 r fas_s;
#X obj 586 421 r sol_s;
#X obj 586 394 r sols_s;
#X obj 586 368 r la_s;
#X obj 586 342 r las_s;
#X obj 586 317 r si_s;
#X obj 109 288 s temper;
#X obj 412 32 r temper;
#X connect 1 0 9 0;
#X connect 1 0 40 0;
#X connect 2 0 10 0;
#X connect 3 0 11 0;
#X connect 17 0 15 0;
#X connect 31 0 7 0;
#X connect 32 0 35 0;
#X connect 32 1 35 1;
#X connect 32 2 35 2;
#X connect 32 3 35 3;
#X connect 32 4 35 4;
#X connect 32 5 35 5;
#X connect 32 6 35 6;
#X connect 32 7 35 7;
#X connect 32 8 35 8;
#X connect 32 9 35 9;
#X connect 32 10 35 10;
#X connect 32 11 35 11;
#X connect 33 0 53 0;
#X connect 34 0 36 0;
#X connect 34 1 36 1;
#X connect 34 2 36 2;
#X connect 35 0 31 0;
#X connect 35 1 31 0;
#X connect 35 2 31 0;
#X connect 35 3 31 0;
#X connect 35 4 31 0;
#X connect 35 5 31 0;
#X connect 35 6 31 0;
#X connect 35 7 31 0;
#X connect 35 8 31 0;
#X connect 35 9 31 0;
#X connect 35 10 31 0;
#X connect 35 11 31 0;
#X connect 40 0 32 0;
#X connect 41 0 35 0;
#X connect 42 0 35 1;
#X connect 43 0 35 2;
#X connect 44 0 35 3;
#X connect 45 0 35 4;
#X connect 46 0 35 5;
#X connect 47 0 35 6;
#X connect 48 0 35 7;
#X connect 49 0 35 8;
#X connect 50 0 35 9;
#X connect 51 0 35 10;
#X connect 52 0 35 11;
#X connect 54 0 34 0;
#X coords 0 -1 1 1 652 152 2 100 100;
