#N canvas 1327 399 319 305 12;
#X obj 184 34 inlet;
#X obj 55 32 inlet;
#X text 52 13 notein;
#X text 184 13 desvío en cents;
#X obj 55 115 mtof;
#X listbox 55 159 9 0 0 0 - - - 0;
#X msg 189 88 2;
#X obj 241 88 / 1200;
#X obj 189 125 pow;
#X floatatom 189 164 5 0 0 0 - - - 0;
#X obj 189 209 *;
#X obj 189 261 outlet;
#X floatatom 55 78 5 0 0 0 - - - 0;
#X obj 136 72 bng 15 250 50 0 empty empty empty 17 7 0 10 #fcfcfc #000000
#000000;
#X connect 0 0 7 0;
#X connect 0 0 13 0;
#X connect 1 0 12 0;
#X connect 1 0 13 0;
#X connect 4 0 5 0;
#X connect 5 0 10 1;
#X connect 6 0 8 0;
#X connect 7 0 8 1;
#X connect 8 0 9 0;
#X connect 9 0 10 0;
#X connect 10 0 11 0;
#X connect 12 0 4 0;
#X connect 13 0 6 0;
