#N canvas 856 411 156 328 12;
#X obj 42 17 inlet;
#X obj 42 76 - 69;
#X obj 42 112 / 12;
#X msg 42 177 2;
#X obj 55 212 pow;
#X obj 94 16 inlet;
#X obj 55 243 * 440;
#X obj 55 279 outlet;
#X obj 42 145 t b f;
#X floatatom 42 49 5 0 0 0 - - - 0;
#X connect 0 0 9 0;
#X connect 1 0 2 0;
#X connect 2 0 8 0;
#X connect 3 0 4 0;
#X connect 4 0 6 0;
#X connect 5 0 6 1;
#X connect 6 0 7 0;
#X connect 8 0 3 0;
#X connect 8 1 4 1;
#X connect 9 0 1 0;
