#N canvas 735 1202 243 318 12;
#X obj 97 67 notein;
#X floatatom 171 67 5 -50 50 0 - - - 0;
#X obj 97 148 osc~;
#X obj 95 229 *~;
#X obj 139 214 tgl 15 0 empty empty empty 17 7 0 10 #fcfcfc #000000
#000000 0 1;
#X obj 96 263 dac~;
#X obj 96 188 *~ 0.1;
#X obj 34 172 print;
#X obj 97 109 mctof;
#X connect 0 0 7 0;
#X connect 0 0 8 0;
#X connect 1 0 7 0;
#X connect 1 0 8 1;
#X connect 2 0 6 0;
#X connect 3 0 5 1;
#X connect 3 0 5 0;
#X connect 4 0 3 1;
#X connect 6 0 3 0;
#X connect 8 0 2 0;
#X connect 8 0 7 0;
