#N canvas 343 1084 534 290 12;
#N canvas 668 997 1009 647 afinador 0;
#X obj 606 36 notein;
#X obj 606 100 mod 12;
#X floatatom 606 68 5 0 0 0 - - - 0;
#X floatatom 143 402 5 -50 50 0 - - - 0;
#X obj 206 332 sel 0 1 2 3 4 5 6 7 8 9 10 11;
#X floatatom 606 132 5 0 0 0 - - - 0;
#X obj 702 120 dac~;
#X obj 703 36 pack 0 0;
#X obj 703 76 sinte-poly;
#X obj 102 101 cnv 15 450 150 empty empty Afinador 180 12 0 14 #e0e0e0
#404040 0;
#X floatatom 126 205 5 -50 50 3 Do - - 0;
#X floatatom 159 164 5 -50 50 2 Do$-Reb - - 0;
#X floatatom 187 205 5 -50 50 3 Re - - 0;
#X floatatom 224 164 5 -50 50 2 Re$-Mib - - 0;
#X floatatom 252 203 5 -50 50 3 Mi - - 0;
#X floatatom 303 202 5 -50 50 3 Fa - - 0;
#X floatatom 335 163 5 -50 50 2 Fa$-Solb - - 0;
#X floatatom 364 202 5 -50 50 3 Sol - - 0;
#X floatatom 397 163 5 -50 50 2 Sol$-Lab - - 0;
#X floatatom 427 202 5 -50 50 3 La - - 0;
#X floatatom 460 163 5 -50 50 2 La$-Sib - - 0;
#X floatatom 490 201 5 -50 50 3 Si - - 0;
#X connect 0 0 2 0;
#X connect 0 0 7 0;
#X connect 0 1 7 1;
#X connect 1 0 5 0;
#X connect 2 0 1 0;
#X connect 3 0 8 1;
#X connect 4 0 10 0;
#X connect 4 1 11 0;
#X connect 4 2 12 0;
#X connect 4 3 13 0;
#X connect 4 4 14 0;
#X connect 4 5 15 0;
#X connect 4 6 16 0;
#X connect 4 7 17 0;
#X connect 4 8 18 0;
#X connect 4 9 19 0;
#X connect 4 10 20 0;
#X connect 4 11 21 0;
#X connect 5 0 4 0;
#X connect 7 0 8 0;
#X connect 8 0 6 0;
#X connect 8 0 6 1;
#X connect 10 0 3 0;
#X connect 11 0 3 0;
#X connect 12 0 3 0;
#X connect 13 0 3 0;
#X connect 14 0 3 0;
#X connect 15 0 3 0;
#X connect 16 0 3 0;
#X connect 17 0 3 0;
#X connect 18 0 3 0;
#X connect 19 0 3 0;
#X connect 20 0 3 0;
#X connect 21 0 3 0;
#X coords 0 -1 1 1 452 152 2 100 100;
#X restore 48 76 pd afinador;
