#N canvas 735 1202 172 213 12;
#X obj 31 23 notein;
#X floatatom 105 23 5 -50 50 0 - - - 0;
#X obj 30 147 dac~;
#X obj 31 103 sinte-mono;
#X obj 31 63 pack 0 0;
#X connect 0 0 4 0;
#X connect 0 1 4 1;
#X connect 1 0 3 1;
#X connect 3 0 2 0;
#X connect 3 0 2 1;
#X connect 4 0 3 0;
