#N canvas 471 1354 172 213 12;
#X obj 31 23 notein;
#X floatatom 105 23 5 -50 50 0 - - - 0;
#X obj 30 147 dac~;
#X obj 31 63 pack 0 0;
#X obj 31 103 sinte-poly;
#X connect 0 0 3 0;
#X connect 0 1 3 1;
#X connect 1 0 4 1;
#X connect 3 0 4 0;
#X connect 4 0 2 0;
#X connect 4 0 2 1;
