#N canvas 596 85 716 278 12;
#X obj 248 109 cnv 15 450 150 empty empty Tuner 20 12 0 18 #ffc7c6
#ff0400 0;
#X floatatom 636 120 5 400 460 0 Diapasón\ (La4): diapason_init diapason_r
0;
#X floatatom 270 217 5 -50 50 3 Do do_init do_r 0;
#X floatatom 303 189 5 -50 50 2 Do$-Reb dos_init dos_r 0;
#X floatatom 335 217 5 -50 50 3 Re re_init re_r 0;
#X floatatom 368 189 5 -50 50 2 Re$-Mib res_init res_r 0;
#X floatatom 400 215 5 -50 50 3 Mi mi_init mi_r 0;
#X floatatom 447 214 5 -50 50 3 Fa fa_init fa_r 0;
#X floatatom 479 188 5 -50 50 2 Fa$-Solb fas_init fas_r 0;
#X floatatom 508 214 5 -50 50 3 Sol sol_init sol_r 0;
#X floatatom 541 187 5 -50 50 2 Sol$-Lab sols_init sols_r 0;
#X floatatom 571 213 5 -50 50 3 La la_init la_r 0;
#X floatatom 604 188 5 -50 50 2 La$-Sib las_init las_r 0;
#X floatatom 634 213 5 -50 50 3 Si si_init si_r 0;
#X obj 91 7 prueba_afinador;
#X obj 210 7 temperaments;
#X obj 12 7 loadbang;
#X obj 13 109 cnv 15 220 150 empty empty Tmeperaments 20 12 0 18 #ffc7c6
#ff0400 0;
#X obj 34 135 vradio 15 1 0 8 temperaments empty empty 0 -8 0 10 #fcfcfc
#ff0400 #ff0400 0;
#X text 56 133 Temperamento igual;
#X text 57 149 Vallotti;
#X text 58 166 Wercmeiter III;
#X text 57 181 Kirnberger III;
#X text 56 197 Salinas 1/3 comma;
#X text 56 212 Aaron 1/4 comma;
#X text 56 226 Pythagorean tuning;
#X msg 12 35 \; pd dsp 1 \; diapason_init 440;
#X text 55 241 Just tuning;
#X connect 16 0 26 0;
