#N canvas 805 181 300 722 12;
#X obj 58 211 sinte-mono;
#X obj 76 239 sinte-mono;
#X obj 94 265 sinte-mono;
#X obj 112 293 sinte-mono;
#X obj 58 170 route 1 2 3 4 5 6 7 8;
#X obj 129 321 sinte-mono;
#X obj 146 349 sinte-mono;
#X obj 164 375 sinte-mono;
#X obj 182 403 sinte-mono;
#X obj 59 17 inlet;
#X obj 52 535 outlet~;
#X obj 53 500 *~ 0.2;
#X obj 58 129 pack 0 0 0;
#X obj 135 15 inlet;
#X obj 219 14 inlet;
#X obj 58 94 poly 8 1;
#X connect 0 0 11 0;
#X connect 1 0 11 0;
#X connect 2 0 11 0;
#X connect 3 0 11 0;
#X connect 4 0 0 0;
#X connect 4 1 1 0;
#X connect 4 2 2 0;
#X connect 4 3 3 0;
#X connect 4 4 5 0;
#X connect 4 5 6 0;
#X connect 4 6 7 0;
#X connect 4 7 8 0;
#X connect 5 0 11 0;
#X connect 6 0 11 0;
#X connect 7 0 11 0;
#X connect 8 0 11 0;
#X connect 9 0 15 0;
#X connect 11 0 10 0;
#X connect 12 0 4 0;
#X connect 13 0 15 1;
#X connect 14 0 0 1;
#X connect 14 0 1 1;
#X connect 14 0 2 1;
#X connect 14 0 3 1;
#X connect 14 0 5 1;
#X connect 14 0 6 1;
#X connect 14 0 7 1;
#X connect 14 0 8 1;
#X connect 15 0 12 0;
#X connect 15 1 12 1;
#X connect 15 2 12 2;
