#N canvas 596 402 550 412 12;
#X obj 257 19 notein;
#X obj 240 320 sinte-poly;
#X obj 240 368 dac~;
#X obj 43 91 tuner;
#X connect 0 0 3 0;
#X connect 0 1 3 1;
#X connect 1 0 2 0;
#X connect 1 0 2 1;
#X connect 3 0 1 0;
#X connect 3 1 1 1;
