#N canvas 583 868 154 132 12;
#N canvas 779 840 491 448 destructor 0;
#X obj 280 357 *~;
#X obj 281 20 notein;
#X obj 359 20 > 0;
#X obj 316 347 tgl 15 0 empty destr_on-off empty 17 7 0 10 #fcfcfc
#000000 #000000 0 1;
#X obj 101 101 cnv 15 100 60 empty empty Destructor 12 12 0 14 #ff8300
#404040 0;
#X obj 120 131 tgl 15 0 destr_on-off empty empty 17 7 0 10 #fcfcfc
#000000 #000000 0 1;
#X obj 279 405 outlet~;
#X obj 281 182 destructor-mono;
#X obj 281 54 poly 4;
#X obj 281 89 pack 0 0 0;
#X obj 281 130 route 1 2 3 4;
#X obj 303 210 destructor-mono;
#X obj 325 236 destructor-mono;
#X obj 347 264 destructor-mono;
#X obj 280 308 *~ 0.1;
#X connect 0 0 6 0;
#X connect 1 0 8 0;
#X connect 1 1 2 0;
#X connect 1 1 8 1;
#X connect 3 0 0 1;
#X connect 7 0 14 0;
#X connect 8 0 9 0;
#X connect 8 1 9 1;
#X connect 8 2 9 2;
#X connect 9 0 10 0;
#X connect 10 0 7 0;
#X connect 10 1 11 0;
#X connect 10 2 12 0;
#X connect 10 3 13 0;
#X connect 11 0 14 0;
#X connect 12 0 14 0;
#X connect 13 0 14 0;
#X connect 14 0 0 0;
#X coords 0 -1 1 1 102 62 2 100 100;
#X restore 24 7 pd destructor;
#X obj 24 95 dac~;
#X connect 0 0 1 0;
#X connect 0 0 1 1;
