#N canvas 596 85 716 303 12;
#X obj 266 32 sintemper-main;
#X obj 11 107 cnv 15 224 174 empty empty empty 20 12 0 14 #ff0400 #404040
0;
#X obj 13 109 cnv 15 220 170 empty empty Tmeperaments 20 12 0 18 #ffc7c6
#ff0400 0;
#X obj 34 135 vradio 15 1 0 9 temperaments temp_init empty 0 -8 0 10
#fcfcfc #ff0400 #ff0400 0;
#X text 57 149 Vallotti;
#X text 58 165 Wercmeiter III;
#X text 57 180 Kirnberger III;
#X text 56 195 Salinas 1/3 comma;
#X text 56 210 Aaron 1/4 comma;
#X text 56 224 Pythagorean tuning;
#X obj 246 107 cnv 15 454 174 empty empty empty 20 12 0 14 #ff0400
#404040 0;
#X obj 248 109 cnv 15 450 170 empty empty Tuner 20 12 0 18 #ffc7c6
#ff0400 0;
#X floatatom 636 116 5 400 460 0 A4: diapason_init diapason_r 0;
#X obj 628 138 hradio 15 1 0 3 diapasel_s diapasel_r empty 0 -8 0 10
#ffffff #ff0400 #000000 0;
#X obj 653 82 bng 15 250 50 0 panic_on empty Panic 17 7 0 10 #ffc7c6
#ff0400 #000000;
#X floatatom 270 217 5 -50 50 3 - do_init do_r 0;
#X floatatom 303 189 5 -50 50 2 - dos_init dos_r 0;
#X floatatom 335 217 5 -50 50 3 - re_init re_r 0;
#X floatatom 368 189 5 -50 50 2 - res_init res_r 0;
#X floatatom 400 215 5 -50 50 3 - mi_init mi_r 0;
#X floatatom 447 214 5 -50 50 3 - fa_init fa_r 0;
#X floatatom 479 188 5 -50 50 2 - fas_init fas_r 0;
#X floatatom 508 214 5 -50 50 3 - sol_init sol_r 0;
#X floatatom 541 187 5 -50 50 2 - sols_init sols_r 0;
#X floatatom 571 213 5 -50 50 3 - la_init la_r 0;
#X floatatom 604 188 5 -50 50 2 - las_init las_r 0;
#X floatatom 634 213 5 -50 50 3 - si_init si_r 0;
#X text 282 234 C;
#X text 301 172 C#/Db;
#X text 347 234 D;
#X text 366 172 D#/Eb;
#X text 412 232 E;
#X text 459 231 F;
#X text 476 171 F#/Gb;
#X text 520 231 G;
#X text 539 170 G#/Ab;
#X text 583 230 A;
#X text 602 171 A#/Bb;
#X text 646 230 B;
#X text 56 133 Equal temperament;
#X text 461 139 Fast select 415|432|440;
#X text 55 239 Spectral;
#X text 56 255 Just;
