#N canvas 1116 263 198 441 12;
#X obj 32 355 outlet~;
#X floatatom 104 111 5 0 0 0 - - - 0;
#X obj 104 165 line~;
#X obj 32 265 *~;
#X obj 33 6 inlet;
#X obj 104 76 > 0;
#X obj 33 112 mctof;
#X obj 32 311 *~ 0.1;
#X obj 104 136 pack 0 30;
#X obj 33 172 osc~;
#X obj 33 46 unpack 0 0 0 0;
#X connect 1 0 8 0;
#X connect 2 0 3 1;
#X connect 3 0 7 0;
#X connect 4 0 10 0;
#X connect 5 0 1 0;
#X connect 6 0 9 0;
#X connect 7 0 0 0;
#X connect 8 0 2 0;
#X connect 9 0 3 0;
#X connect 10 0 6 0;
#X connect 10 1 5 0;
#X connect 10 2 6 1;
#X connect 10 3 6 2;
