#N canvas 666 999 325 607 12;
#X obj 70 134 pack 0 0 0;
#X obj 70 227 sinte-mono;
#X obj 88 255 sinte-mono;
#X obj 106 281 sinte-mono;
#X obj 124 309 sinte-mono;
#X obj 70 175 route 1 2 3 4 5 6 7 8;
#X obj 141 337 sinte-mono;
#X obj 159 365 sinte-mono;
#X obj 177 391 sinte-mono;
#X obj 195 419 sinte-mono;
#X obj 70 99 poly 8;
#X obj 70 18 inlet;
#X obj 70 62 unpack;
#X obj 183 17 inlet;
#X obj 62 516 *~ 0.1;
#X obj 61 551 outlet~;
#X connect 0 0 5 0;
#X connect 1 0 14 0;
#X connect 2 0 14 0;
#X connect 3 0 14 0;
#X connect 4 0 14 0;
#X connect 5 0 1 0;
#X connect 5 1 2 0;
#X connect 5 2 3 0;
#X connect 5 3 4 0;
#X connect 5 4 6 0;
#X connect 5 5 7 0;
#X connect 5 6 8 0;
#X connect 5 7 9 0;
#X connect 6 0 14 0;
#X connect 7 0 14 0;
#X connect 8 0 14 0;
#X connect 9 0 14 0;
#X connect 10 0 0 0;
#X connect 10 1 0 1;
#X connect 10 2 0 2;
#X connect 11 0 12 0;
#X connect 12 0 10 0;
#X connect 12 1 10 1;
#X connect 13 0 1 1;
#X connect 13 0 2 1;
#X connect 13 0 3 1;
#X connect 13 0 4 1;
#X connect 13 0 6 1;
#X connect 13 0 7 1;
#X connect 13 0 8 1;
#X connect 13 0 9 1;
#X connect 14 0 15 0;
