#N canvas 618 150 531 530 12;
#X obj 250 144 notein;
#X obj 233 445 sinte-poly;
#X obj 233 493 dac~;
#X obj 36 216 tuner;
#X obj 101 101 cnv 15 158 28 empty empty empty 20 12 0 14 #ffc7c6 #ff0400
0;
#X text 122 106 SinTemper v.0.01;
#N canvas 92 117 209 252 autostart 0;
#X obj 20 122 temperaments;
#X obj 20 17 loadbang;
#X msg 20 45 \; pd dsp 1 \; diapason_init 415 \; temp_init 3;
#X connect 1 0 2 0;
#X restore 12 8 pd autostart;
#N canvas 121 146 180 181 diapasel 0;
#X obj 31 45 sel 0 1 2;
#X obj 31 14 r diapasel_s;
#X msg 31 78 415;
#X msg 70 80 432;
#X msg 108 79 440;
#X obj 31 124 s diapason_init;
#X connect 0 0 2 0;
#X connect 0 1 3 0;
#X connect 0 2 4 0;
#X connect 1 0 0 0;
#X connect 2 0 5 0;
#X connect 3 0 5 0;
#X connect 4 0 5 0;
#X restore 12 37 pd diapasel;
#X connect 0 0 3 0;
#X connect 0 1 3 1;
#X connect 1 0 2 0;
#X connect 1 0 2 1;
#X connect 3 0 1 0;
#X connect 3 1 1 1;
#X coords 0 -1 1 1 160 30 2 100 100;
