#N canvas 1188 148 178 407 12;
#X obj 31 355 outlet~;
#X floatatom 98 115 5 0 0 0 - - - 0;
#X obj 98 169 line~;
#X obj 31 265 *~;
#X obj 31 6 inlet;
#X obj 98 80 > 0;
#X obj 31 311 *~ 0.1;
#X obj 98 140 pack 0 30;
#X obj 31 172 osc~;
#X msg 123 40 0;
#X obj 123 6 inlet;
#X floatatom 31 103 5 0 0 0 - - - 0;
#X obj 31 40 unpack 0 0;
#X connect 1 0 7 0;
#X connect 2 0 3 1;
#X connect 3 0 6 0;
#X connect 4 0 12 0;
#X connect 5 0 1 0;
#X connect 6 0 0 0;
#X connect 7 0 2 0;
#X connect 8 0 3 0;
#X connect 9 0 5 0;
#X connect 10 0 9 0;
#X connect 11 0 8 0;
#X connect 12 0 11 0;
#X connect 12 1 5 0;
