#N canvas 1230 1167 414 300 12;
#X obj 75 31 inlet;
#X obj 211 34 inlet;
#X text 73 7 nota MIDI;
#X text 208 8 desviación (en cents);
#X obj 75 109 mtof;
#X listbox 75 153 9 0 0 0 - - - 0;
#X msg 209 82 2;
#X obj 261 82 / 1200;
#X obj 209 119 pow;
#X floatatom 209 158 5 0 0 0 - - - 0;
#X obj 209 203 *;
#X obj 209 255 outlet;
#X floatatom 75 72 5 0 0 0 - - - 0;
#X obj 156 66 bng 15 250 50 0 empty empty empty 17 7 0 10 #fcfcfc #000000
#000000;
#X connect 0 0 12 0;
#X connect 0 0 13 0;
#X connect 1 0 7 0;
#X connect 1 0 13 0;
#X connect 4 0 5 0;
#X connect 5 0 10 1;
#X connect 6 0 8 0;
#X connect 7 0 8 1;
#X connect 8 0 9 0;
#X connect 9 0 10 0;
#X connect 10 0 11 0;
#X connect 12 0 4 0;
#X connect 13 0 6 0;
