#N canvas 92 350 1257 396 12;
#X text 250 136 valotti;
#X text 60 140 temperamento igual;
#X text 419 140 wercmeister iii;
#X obj 53 21 r temperaments;
#X msg 53 161 \; do_init 0 \; dos_init 0 \; re_init 0 \; res_init 0
\; mi_init 0 \; fa_init 0 \; fas_init 0 \; sol_init 0 \; sols_init
0 \; la_init 0 \; las_init 0 \; si_init 0 \;;
#X msg 237 157 \; do_init 0 \; dos_init -5 \; re_init -4 \; res_init
-2 \; mi_init -8 \; fa_init 2 \; fas_init -8 \; sol_init -2 \; sols_init
-4 \; la_init -6 \; las_init 0 \; si_init -10 \;;
#X msg 409 161 \; do_init 0 \; dos_init -10 \; re_init -8 \; res_init
-6 \; mi_init -10 \; fa_init -2 \; fas_init -12 \; sol_init -4 \; sols_init
-8 \; la_init -12 \; las_init -4 \; si_init -8 \;;
#X text 571 142 kirnberger iii;
#X msg 564 163 \; do_init 0 \; dos_init -8 \; re_init -7 \; res_init
-6 \; mi_init -14 \; fa_init -2 \; fas_init -10 \; sol_init -3 \; sols_init
-6 \; la_init -10 \; las_init -4 \; si_init -12 \;;
#X text 718 143 salinas;
#X msg 711 164 \; do_init 0 \; dos_init -36 \; re_init -10 \; res_init
16 \; mi_init -21 \; fa_init 5 \; fas_init -31 \; sol_init -5 \; sols_init
-42 \; la_init -16 \; las_init 10 \; si_init -26 \;;
#X text 861 141 aaron 1/4;
#X text 998 139 pitágoras;
#X msg 991 160 \; do_init 0 \; dos_init 14 \; re_init 4 \; res_init
-6 \; mi_init 8 \; fa_init -2 \; fas_init 12 \; sol_init 2 \; sols_init
16 \; la_init 6 \; las_init -4 \; si_init 10 \;;
#X msg 854 162 \; do_init 0 \; dos_init -24 \; re_init -7 \; res_init
10 \; mi_init -14 \; fa_init 3 \; fas_init -22 \; sol_init -3 \; sols_init
-27 \; la_init -10 \; las_init 7 \; si_init -7 \;;
#X obj 53 68 sel 0 1 2 3 4 5 6 7;
#X text 1124 139 afin justa;
#X msg 1117 160 \; do_init 0 \; dos_init 0 \; re_init 4 \; res_init
0 \; mi_init -14 \; fa_init -2 \; fas_init 0 \; sol_init 2 \; sols_init
0 \; la_init -16 \; las_init 0 \; si_init -12 \;;
#X connect 3 0 15 0;
#X connect 15 0 4 0;
#X connect 15 1 5 0;
#X connect 15 2 6 0;
#X connect 15 3 8 0;
#X connect 15 4 10 0;
#X connect 15 5 14 0;
#X connect 15 6 13 0;
#X connect 15 7 17 0;
