#N canvas 592 113 621 638 12;
#X obj 102 102 cnv 15 448 188 empty empty empty 300 12 0 14 #e0e0e0
#404040 0;
#X obj 41 28 inlet;
#X obj 149 26 inlet;
#X text 39 8 nota MIDI;
#X text 148 5 velocity;
#X obj 41 581 outlet;
#X text 147 560 velocity;
#X floatatom 499 124 5 400 460 0 Diapasón: diapason_r - 0;
#X floatatom 123 220 5 -50 50 3 Do do_r do_s 0;
#X floatatom 156 179 5 -50 50 2 Do$-Reb dos_r dos_s 0;
#X floatatom 185 220 5 -50 50 3 Re re_r re_s 0;
#X floatatom 221 179 5 -50 50 2 Re$-Mib res_r res_s 0;
#X floatatom 249 218 5 -50 50 3 Mi mi_r mi_s 0;
#X floatatom 300 217 5 -50 50 3 Fa fa_r fa_s 0;
#X floatatom 332 178 5 -50 50 2 Fa$-Solb fas_r fas_s 0;
#X floatatom 361 217 5 -50 50 3 Sol sol_r sol_s 0;
#X floatatom 394 177 5 -50 50 2 Sol$-Lab sols_r sols_s 0;
#X floatatom 424 217 5 -50 50 3 La la_r la_s 0;
#X floatatom 457 178 5 -50 50 2 La$-Sib las_r las_s 0;
#X floatatom 487 216 5 -50 50 3 Si si_r si_s 0;
#X floatatom 387 444 5 -50 50 0 - - - 0;
#X obj 304 306 sel 0 1 2 3 4 5 6 7 8 9 10 11;
#N canvas 459 236 753 159 notas 0;
#X floatatom 37 70 5 -50 50 3 Do - - 0;
#X floatatom 97 70 5 -50 50 3 Do$-Reb - - 0;
#X floatatom 158 70 5 -50 50 3 Re - - 0;
#X floatatom 219 70 5 -50 50 3 Re$-Mib - - 0;
#X floatatom 278 68 5 -50 50 3 Mi - - 0;
#X floatatom 338 68 5 -50 50 3 Fa - - 0;
#X floatatom 395 69 5 -50 50 3 Fa$-Solb - - 0;
#X floatatom 452 67 5 -50 50 3 Sol - - 0;
#X floatatom 514 67 5 -50 50 3 Sol$-Lab - - 0;
#X floatatom 571 65 5 -50 50 3 La - - 0;
#X floatatom 631 64 5 -50 50 3 La$-Sib - - 0;
#X floatatom 689 63 5 -50 50 3 Si - - 0;
#X obj 37 29 inlet;
#X obj 97 29 inlet;
#X obj 158 29 inlet;
#X obj 219 28 inlet;
#X obj 278 26 inlet;
#X obj 338 25 inlet;
#X obj 395 25 inlet;
#X obj 452 24 inlet;
#X obj 515 22 inlet;
#X obj 572 20 inlet;
#X obj 631 18 inlet;
#X obj 689 16 inlet;
#X obj 37 123 outlet;
#X obj 97 123 outlet;
#X obj 158 122 outlet;
#X obj 219 122 outlet;
#X obj 278 122 outlet;
#X obj 338 122 outlet;
#X obj 395 122 outlet;
#X obj 452 122 outlet;
#X obj 513 123 outlet;
#X obj 571 123 outlet;
#X obj 631 123 outlet;
#X obj 689 123 outlet;
#X connect 0 0 24 0;
#X connect 1 0 25 0;
#X connect 2 0 26 0;
#X connect 3 0 27 0;
#X connect 4 0 28 0;
#X connect 5 0 29 0;
#X connect 6 0 30 0;
#X connect 7 0 31 0;
#X connect 8 0 32 0;
#X connect 9 0 33 0;
#X connect 10 0 34 0;
#X connect 11 0 35 0;
#X connect 12 0 0 0;
#X connect 13 0 1 0;
#X connect 14 0 2 0;
#X connect 15 0 3 0;
#X connect 16 0 4 0;
#X connect 17 0 5 0;
#X connect 18 0 6 0;
#X connect 19 0 7 0;
#X connect 20 0 8 0;
#X connect 21 0 9 0;
#X connect 22 0 10 0;
#X connect 23 0 11 0;
#X restore 304 354 pd notas;
#X f 27;
#N canvas 420 247 110 151 whichnote 0;
#X obj 16 12 inlet;
#X obj 16 47 mod 12;
#X obj 16 82 outlet;
#X connect 0 0 1 0;
#X connect 1 0 2 0;
#X restore 57 66 pd whichnote;
#X obj 232 355 r do_s;
#X obj 232 381 r dos_s;
#X obj 232 407 r re_s;
#X obj 232 433 r res_s;
#X obj 232 459 r mi_s;
#X obj 232 485 r fa_s;
#X obj 518 487 r fas_s;
#X obj 518 459 r sol_s;
#X obj 518 432 r sols_s;
#X obj 518 406 r la_s;
#X obj 518 380 r las_s;
#X obj 518 355 r si_s;
#X text 486 271 velocity;
#X text 489 100 velocity;
#X obj 41 420 mctof;
#X obj 149 578 outlet;
#X text 41 562 frecuencia;
#X obj 95 349 s diapason_r;
#X floatatom 41 478 5 0 0 0 - - - 0;
#X obj 95 309 bng 15 250 50 0 empty empty empty 17 7 0 10 #fcfcfc #000000
#000000;
#X text 102 101 MIDI note;
#X text 101 270 frequency;
#X connect 1 0 23 0;
#X connect 1 0 38 0;
#X connect 1 0 43 0;
#X connect 2 0 39 0;
#X connect 7 0 38 2;
#X connect 20 0 38 1;
#X connect 21 0 22 0;
#X connect 21 1 22 1;
#X connect 21 2 22 2;
#X connect 21 3 22 3;
#X connect 21 4 22 4;
#X connect 21 5 22 5;
#X connect 21 6 22 6;
#X connect 21 7 22 7;
#X connect 21 8 22 8;
#X connect 21 9 22 9;
#X connect 21 10 22 10;
#X connect 21 11 22 11;
#X connect 22 0 20 0;
#X connect 22 1 20 0;
#X connect 22 2 20 0;
#X connect 22 3 20 0;
#X connect 22 4 20 0;
#X connect 22 5 20 0;
#X connect 22 6 20 0;
#X connect 22 7 20 0;
#X connect 22 8 20 0;
#X connect 22 9 20 0;
#X connect 22 10 20 0;
#X connect 22 11 20 0;
#X connect 23 0 21 0;
#X connect 24 0 22 0;
#X connect 25 0 22 1;
#X connect 26 0 22 2;
#X connect 27 0 22 3;
#X connect 28 0 22 4;
#X connect 29 0 22 5;
#X connect 30 0 22 6;
#X connect 31 0 22 7;
#X connect 32 0 22 8;
#X connect 33 0 22 9;
#X connect 34 0 22 10;
#X connect 35 0 22 11;
#X connect 38 0 42 0;
#X connect 42 0 5 0;
#X connect 43 0 41 0;
#X connect 43 0 20 0;
#X coords 0 -1 1 1 452 192 2 100 100;
